<?xml version="1.0" encoding="utf-8"?>
<!-- Generator: Adobe Illustrator 17.0.0, SVG Export Plug-In . SVG Version: 6.00 Build 0)  -->
<!DOCTYPE svg PUBLIC "-//W3C//DTD SVG 1.1//EN" "http://www.w3.org/Graphics/SVG/1.1/DTD/svg11.dtd">
<svg version="1.1" id="Capa_1" xmlns="http://www.w3.org/2000/svg" xmlns:xlink="http://www.w3.org/1999/xlink" x="0px" y="0px"
	 width="140.562px" height="95.173px" viewBox="0 0 140.562 95.173" enable-background="new 0 0 140.562 95.173"
	 xml:space="preserve">
<g>
	<path d="M23.325,20.637C33.542-0.543,57.332-10.26,75.167,15.31c12.399-3.908,24.526-7.928,36.795-11.457
		c3.059-0.88,6.639-0.606,9.864-0.112c7.224,1.107,11.927,5.358,12.776,10.856c0.829,5.375-2.78,12.103-8.387,15.335
		c-2.265,1.306-4.694,2.328-7.04,3.475c4.421,1.261,8.954,2.07,13.073,3.843c6.136,2.641,9.289,9.579,8.048,16.141
		c-1.249,6.603-6.73,12.013-13.577,11.815c-10.442-0.301-20.857-1.529-31.311-2.365c-1.92,12.802-4.63,15.662-17.882,18.882
		c-1.057,0.257-2.363,1.145-2.789,2.086c-5.729,12.65-19.909,15.279-29.663,5.149c-3.036-3.153-5.487-5.938-10.575-5.345
		c-2.503,0.292-5.938-0.987-7.785-2.765c-4.58-4.409-9.785-6.766-15.902-8.14c-4.951-1.112-7.509-5.344-8.89-10.002
		c-3.83-12.911-1.875-25.091,5.39-36.314C10.926,20.804,15.282,19.461,23.325,20.637z M75.357,58.738
		c0.458,1.77,0.915,3.539,1.373,5.309c-1.783,0.269-3.693,1.076-5.32,0.689c-2.865-0.681-5.483-2.621-8.345-3.012
		c-1.937-0.265-4.113,1.219-6.182,1.921c0.696,1.921,0.885,4.326,2.177,5.678c5.556,5.82,18.597,6.658,25.066,1.934
		c3.547-2.59,4.308-6.721,0.854-9.2c-2.634-1.891-6.405-2.2-9.67-3.213c0.301-8.459,0.915-8.829,9.722-6.701
		c4.2,1.015,8.437,1.968,12.712,2.555c8.401,1.153,16.824,2.23,25.27,2.953c5.702,0.488,8.875-1.692,9.728-5.757
		c0.796-3.793-1.8-7.227-6.897-8.896c-1.723-0.564-3.564-1.177-5.334-1.128c-12.612,0.353-25.222,0.831-37.828,1.37
		c-2.723,0.116-5.743,0.761-6.465-2.814c-0.707-3.505,2.118-4.444,4.814-5.141c9.173-2.371,18.397-4.563,27.505-7.161
		c4.918-1.403,9.906-3.015,14.33-5.485c1.989-1.111,3.975-4.809,3.572-6.865c-0.369-1.885-3.769-3.874-6.171-4.478
		c-2.768-0.696-6.1-0.542-8.847,0.322c-9.666,3.041-19.167,6.6-28.771,9.842c-3.36,1.134-4.728,2.945-4.959,6.756
		c-0.486,8.01-7.087,12.243-14.905,10.182c-1.694-0.447-3.312-1.183-5.006-1.801c-0.844,1.696-1.48,3.237-2.335,4.644
		c-2.806,4.619-5.899,9.123-11.755,9.898c-1.521,0.201-3.273-1.352-4.919-2.099c0.94-1.657,1.612-3.57,2.888-4.904
		c1.559-1.63,3.929-2.506,5.409-4.184c2.961-3.354,3.478-7.172,2.02-11.623c-0.553-1.689,1.024-4.075,1.63-6.144
		c1.864,0.586,4.001,0.781,5.528,1.848c2.29,1.601,3.949,4.122,6.27,5.658c1.477,0.977,4.09,1.709,5.413,1.029
		c1.299-0.667,2.276-3.274,2.234-5.001c-0.157-6.461-4.61-10.497-9.204-14.126c-4.375-3.456-9.465-5.139-14.954-2.951
		c-6.043,2.408-11.129,6.25-13.798,12.355c-2.121,4.85-3.373,10.083-5.537,14.91c-0.662,1.476-3.068,2.169-4.675,3.221
		c-0.87-1.559-2.252-3.05-2.472-4.696c-0.243-1.826,0.576-3.793,0.939-5.733c-6.467-0.662-10.832,5.594-12.456,17.033
		C6.4,57.036,9.496,64.656,14.953,65.655c2.353-1.939,4.066-3.351,5.779-4.763c1.371,1.802,3.315,3.411,4,5.444
		c1.688,5.011,4.638,8.4,9.842,9.564c2.284,0.511,3.254-0.416,4.821-2.61c4.58-6.413,10.118-12.158,15.487-17.975
		c0.861-0.933,2.757-1.073,4.216-1.266C65.178,53.242,70.499,55.202,75.357,58.738z M66.526,82.669
		c-5.194-3.292-10.068-6.321-14.877-9.451c-2.934-1.909-4.317-0.63-4.836,2.256c-0.696,3.872,3.613,9.663,8.303,11.355
		C59.839,88.532,64.234,86.822,66.526,82.669z"/>
</g>
</svg>
