<?xml version="1.0" encoding="utf-8"?>
<!-- Generator: Adobe Illustrator 17.0.0, SVG Export Plug-In . SVG Version: 6.00 Build 0)  -->
<!DOCTYPE svg PUBLIC "-//W3C//DTD SVG 1.1//EN" "http://www.w3.org/Graphics/SVG/1.1/DTD/svg11.dtd">
<svg version="1.1" id="Capa_1" xmlns="http://www.w3.org/2000/svg" xmlns:xlink="http://www.w3.org/1999/xlink" x="0px" y="0px"
	 width="140.562px" height="95.173px" viewBox="0 0 140.562 95.173" enable-background="new 0 0 140.562 95.173"
	 xml:space="preserve">
<g>
	<path d="M106.285,82.67c-0.88,9.485-4.965,13.165-15.572,11.854c-7.44-0.919-14.732-2.98-22.136-4.27
		c-2.962-0.516-6.133-0.85-9.058-0.362c-7.228,1.207-14.435,2.163-21.395-0.664c-3.197-1.298-6.497-3.161-8.785-5.654
		c-2.43-2.648-4.747-4.352-8.365-4.759c-6.988-0.787-9.936-5.779-11.265-11.966c-1.907-8.879-0.492-17.367,3.786-25.314
		c3.877-7.202,7.836-8.767,16.21-6.493c2.058-6.281,7.142-9.834,12.237-13.743c2.781-2.134,4.108-6.533,5.388-10.158
		c1.536-4.351,3.157-8.351,7.995-9.805c9.081-2.73,16.217,4.005,14.972,14.441c-0.446,3.741-1.924,7.359-3.055,11.485
		c1.052-0.154,2.24-0.261,3.397-0.508c10.68-2.276,21.286-4.991,32.048-6.761c12.655-2.082,18.448,4.156,16.268,17.123
		c7.274,1.034,12.396,4.666,12.722,12.632c0.207,5.064-3.8,9.505-10.765,12.498c2.04,4.736,3.44,10.177-0.849,13.819
		C116.531,79.064,111.487,80.283,106.285,82.67z M21.096,73.019c0.246-0.44,0.493-0.881,0.739-1.321
		c1.392-1.249,2.955-3.636,4.133-3.459c1.477,0.221,3.124,2.334,3.852,4c3.312,7.579,8.997,11.586,17.17,11.828
		c3.817,0.113,7.791,0.162,11.443-0.755c4.416-1.11,8.366-0.306,12.544,0.743c6.293,1.579,12.665,2.855,19.03,4.131
		c1.719,0.345,3.558,0.463,5.294,0.264c2.966-0.341,4.636-2.44,4.126-5.197c-0.192-1.039-2.635-2.22-4.144-2.363
		c-6.911-0.657-13.859-0.921-20.785-1.432c-2.4-0.177-5.146-0.543-4.724-3.889c0.379-3.007,2.849-2.697,5.184-2.595
		c11.361,0.497,22.723,1,34.091,1.251c5.007,0.11,7.337-1.831,7.1-5.252c-0.316-4.571-3.616-4.675-7.079-4.618
		c-9.905,0.162-19.812,0.257-29.718,0.361c-2.341,0.025-5.324,0.492-5.45-2.874c-0.134-3.599,2.972-3.383,5.487-3.495
		c1.625-0.073,3.255-0.047,4.876-0.159c11.501-0.796,23.007-1.526,34.495-2.484c3.599-0.3,6.139-2.382,6.168-6.288
		c0.03-3.987-2.873-5.648-6.188-5.445c-7.029,0.43-14.055,1.235-21.019,2.296c-6.707,1.022-13.327,2.611-20.005,3.846
		c-2.24,0.414-5.005,0.557-5.032-2.502c-0.011-1.246,2.212-2.789,3.723-3.683c1.193-0.706,2.865-0.565,4.299-0.903
		c9.474-2.236,18.952-4.457,28.405-6.781c2.71-0.666,4.497-2.401,4.163-5.421c-0.349-3.156-2.459-4.703-5.468-4.687
		c-2.786,0.015-5.631,0.18-8.344,0.771c-10.53,2.294-20.99,4.911-31.537,7.117c-2.875,0.602-3.667,1.614-3.798,4.575
		c-0.389,8.825-4.155,15.897-12.171,20.268c-2.021,1.102-4.305,2.193-5.794-0.451c-1.469-2.608,0.453-3.977,2.587-5.126
		c5.703-3.07,8.961-8.129,8.854-14.364c-0.109-6.346,1.356-11.921,4.423-17.295c0.721-1.264,1.235-2.699,1.573-4.12
		c1.193-5.01-0.437-9.607-3.529-10.286c-3.284-0.721-5.7,1.725-6.953,7.538c-1.324,6.143-4.624,10.522-9.946,13.975
		c-2.905,1.884-5.175,5.076-7.055,8.099c-1.344,2.161-1.357,5.107-2.378,7.529c-0.482,1.144-1.916,2.572-2.953,2.601
		c-1.02,0.028-2.194-1.454-3.102-2.453c-1.149-1.264-2.066-3.789-3.14-3.82c-1.521-0.044-3.691,1.328-4.544,2.728
		c-4.576,7.509-6.336,15.618-3.201,24.123C17.563,69.617,19.629,71.207,21.096,73.019z"/>
</g>
</svg>
