<?xml version="1.0" encoding="utf-8"?>
<!-- Generator: Adobe Illustrator 17.0.0, SVG Export Plug-In . SVG Version: 6.00 Build 0)  -->
<!DOCTYPE svg PUBLIC "-//W3C//DTD SVG 1.1//EN" "http://www.w3.org/Graphics/SVG/1.1/DTD/svg11.dtd">
<svg version="1.1" id="Capa_1" xmlns="http://www.w3.org/2000/svg" xmlns:xlink="http://www.w3.org/1999/xlink" x="0px" y="0px"
	 width="140.562px" height="95.173px" viewBox="0 0 140.562 95.173" enable-background="new 0 0 140.562 95.173"
	 xml:space="preserve">
<path d="M41.025,21.189c3.744-9.278,10.26-15.622,19.178-19.166c8.818-3.504,16.941-1.153,23.649,5.049
	c3.088,2.855,5.767,2.86,9.358,1.919c8.747-2.291,16.593-0.308,23.34,5.762c7.969,7.17,8.32,15.19,0.943,22.912
	c-1.813,1.898-3.863,3.571-5.807,5.351c3.285,6.802,3.742,13.132-2.784,18.438c-0.448,0.364-0.763,1.218-0.718,1.812
	c0.786,10.369-5.644,15.009-14.156,18.123c-0.999,0.366-2.176,1.274-2.532,2.212c-3.931,10.351-15.074,14.608-24.366,8.047
	c-5.342-3.772-10.348-5.359-16.693-5.335c-5.931,0.022-10.52-3.493-13.574-8.603c-1.376-2.303-2.949-3.583-5.78-4.084
	c-5.105-0.905-8.842-3.955-10.686-9.013c-4.796-13.158-2.789-25.597,4.196-37.376C28.269,21.038,34.018,19.321,41.025,21.189z
	 M55.348,78.543c0.853-3.019,0.842-6.693,2.668-8.67c3.829-4.147,6.604-8.722,9.581-13.421c2.303-3.635,1.752-5.871,1.294-9.03
	c-2.526,1.389-4.646,2.708-6.894,3.749c-2.471,1.144-4.912,0.792-5.982-1.906c-1.108-2.795,0.583-4.185,3.221-5.22
	c6.056-2.377,8.648-8.075,7.038-14.587c-0.233-0.942-0.666-2.061-0.368-2.86c0.583-1.561,1.301-3.539,2.568-4.225
	c0.946-0.511,3.134,0.375,4.257,1.277c2.383,1.914,4.231,4.524,6.695,6.296c1.386,0.996,3.943,1.687,5.275,1.051
	c1.277-0.609,2.323-3.116,2.305-4.777c-0.07-6.523-4.475-10.631-9.125-14.292c-6.226-4.902-12.613-5.356-18.892-0.616
	c-3.781,2.855-7.134,6.663-9.656,10.684c-2.239,3.569-3.218,7.978-4.469,12.103c-0.884,2.916-1.388,6.279-5.482,5.158
	c-3.894-1.066-2.546-4.32-2.041-7.014c0.201-1.073,0.478-2.131,0.75-3.327c-4.426-1.754-6.498,1.11-8.081,4.04
	c-4.564,8.453-5.763,17.448-3.321,26.79c0.796,3.047,2.452,5.524,5.907,6.205c0.645-1.517,0.857-3.216,1.813-3.963
	c1.244-0.972,3.373-1.963,4.576-1.507c1.16,0.44,2.425,2.802,2.267,4.16C40.216,73.557,46.533,79.802,55.348,78.543z M90.134,37.924
	c8.733,2.66,17.566,0.14,22.848-6.554c2.716-3.442,2.643-6.499-0.232-9.727c-4.77-5.354-12.888-7.182-19.848-4.463
	c0.074,4.88,4.537,4.559,7.358,6.075c2.339,1.258,3.782,3.111,2.281,5.285c-0.829,1.2-3.346,1.352-5.155,1.697
	c-0.691,0.132-1.531-0.518-2.211-0.777C93.506,32.262,91.893,34.969,90.134,37.924z M93.743,59.768
	c3.501-1.476,7.35-2.472,10.35-4.642c1.388-1.004,1.683-4.356,1.457-6.538c-0.265-2.554-2.626-2.341-4.891-2.447
	c-5.212-0.243-10.471-0.735-15.564-1.817c-2.91-0.618-5.764-1.542-7.549,1.153c-1.854,2.8-0.433,5.695,1.759,7.91
	C83.148,57.267,88.013,58.707,93.743,59.768z M100.433,65.907c-8.544,1.206-16.137,0.355-23.03-4.169
	c-1.012-0.664-2.426-0.714-3.654-1.048c-0.325,1.541-1.167,3.203-0.84,4.591c0.387,1.644,1.493,3.388,2.791,4.502
	c5.257,4.513,11.411,5.744,17.959,3.579C96.795,72.325,99.611,70.423,100.433,65.907z M83.312,83.246
	c-5.376-3.596-10.357-6.724-15.091-10.189c-2.021-1.479-3.269-0.884-3.867,0.897c-0.486,1.448-0.738,3.872,0.081,4.698
	c2.857,2.883,5.885,6.016,9.485,7.638C78.343,88.283,82.195,86.159,83.312,83.246z"/>
</svg>
